PathFileType  4	(X/Y/Z) C:\Users\antoi\Documents\MyRepositories\mobilecap\ResultsAnalysis
DataRate	CameraRate	NumFrames	NumMarkers	Units	OrigDataRate	OrigDataStartFrame	OrigNumFrames
100.0	100.0	4	51	mm	100.0	113	150
Frame#	Time	r_knee			r_shank_antsup			r_ankle			r_calc			r_5meta			r_toe			L_knee			L_shank_antsup			L_ankle			L_calc			L_5meta			L_toe			r_sh2			r_sh3			r_sh4			L_sh2			L_sh3			r_thigh1			r_thigh2			r_thigh3			r_thigh4			r_thigh5			L_thigh1			L_thigh2			L_thigh3			L_thigh4			r.ASIS			r.PSIS			L.ASIS			L.PSIS			C7			R_Shoulder			L_Shoulder			R_Sternum			L_Sternum			R_humerus			R_elbow_med			R_elbow_lat			R_forearm			R_wrist_radius			R_wrist_ulna			L_humerus			L_elbow_med			L_elbow_lat			L_forearm			L_wrist_radius			L_wrist_ulna			R_HJC			L_HJC			R_HJC_reg			L_HJC_reg			
		X1	Y1	Z1	X2	Y2	Z2	X3	Y3	Z3	X4	Y4	Z4	X5	Y5	Z5	X6	Y6	Z6	X7	Y7	Z7	X8	Y8	Z8	X9	Y9	Z9	X10	Y10	Z10	X11	Y11	Z11	X12	Y12	Z12	X13	Y13	Z13	X14	Y14	Z14	X15	Y15	Z15	X16	Y16	Z16	X17	Y17	Z17	X18	Y18	Z18	X19	Y19	Z19	X20	Y20	Z20	X21	Y21	Z21	X22	Y22	Z22	X23	Y23	Z23	X24	Y24	Z24	X25	Y25	Z25	X26	Y26	Z26	X27	Y27	Z27	X28	Y28	Z28	X29	Y29	Z29	X30	Y30	Z30	X31	Y31	Z31	X32	Y32	Z32	X33	Y33	Z33	X34	Y34	Z34	X35	Y35	Z35	X36	Y36	Z36	X37	Y37	Z37	X38	Y38	Z38	X39	Y39	Z39	X40	Y40	Z40	X41	Y41	Z41	X42	Y42	Z42	X43	Y43	Z43	X44	Y44	Z44	X45	Y45	Z45	X46	Y46	Z46	X47	Y47	Z47	X48	Y48	Z48	X49	Y49	Z49	X50	Y50	Z50	X51	Y51	Z51	

113	1.12000000	1213.72685	501.06674	-69.77061	1263.97842	474.10762	-76.65026	1320.97879	109.13042	-102.90631	1282.14698	59.09863	-155.45768	1473.17912	97.58289	-56.54202	1492.57581	140.06019	-110.11118	963.30116	487.73459	-386.67156	964.18481	397.33976	-394.11312	822.49158	104.80371	-332.08129	754.93180	74.97185	-279.02644	934.09710	38.72792	-354.53026	977.36971	54.51253	-301.57301	1299.53189	365.62525	-87.77943	1198.86616	447.69569	-41.21240	1233.78961	337.13717	-39.82520	881.07984	431.77466	-405.65975	843.42293	316.38428	-394.78342	1186.31138	796.66063	-127.58329	1235.09436	696.16573	-116.75911	1221.38655	672.48715	-52.87687	1122.89681	776.00616	-36.97313	1168.94337	671.67327	-27.21039	1092.97551	790.92617	-407.00596	1061.55246	653.67087	-408.00109	982.54711	814.18625	-412.82854	948.83153	683.24405	-391.80253	1139.70911	946.91427	-110.86961	952.73205	983.66864	-183.58922	1151.08342	927.49596	-346.01288	955.79337	986.70484	-281.94373	1019.06339	1446.20043	-277.37209	1087.04330	1422.00289	-111.95840	1086.37281	1377.53986	-433.07958	1129.16124	1349.12500	-252.25535	1131.57004	1342.15770	-289.69217	1065.63997	1191.58934	-8.28076	997.30740	1106.34778	-26.98316	1033.11056	1108.00269	23.36906	1092.81557	976.49324	37.06928	1127.70873	877.80121	22.57846	1098.51547	874.41552	55.69628	1122.24002	1151.97242	-511.19438	1095.26153	1039.72934	-473.92349	1118.68284	1050.13958	-526.34095	1223.23362	950.49283	-541.18626	1295.84835	871.64163	-517.86822	1264.48979	849.41786	-541.10346	1064.69100	866.12040	-140.52380	1055.97369	865.95146	-330.99678	1071.83262	864.49957	-147.64454	1076.68154	869.30862	-303.39522	
114	1.13000000	1223.54194	499.31440	-69.48414	1274.02756	473.59779	-76.19886	1342.48626	109.79969	-103.52640	1304.61695	59.60885	-155.82720	1494.74050	102.80742	-57.44599	1512.49189	146.18449	-110.74733	969.17237	487.11273	-387.13863	968.93436	396.62573	-394.62138	823.31642	105.82689	-332.67757	755.44763	76.62041	-279.58331	934.23669	38.54121	-354.65425	977.71841	54.17822	-301.79744	1312.65614	366.10795	-87.39166	1209.53345	445.37999	-40.95540	1247.42401	335.73537	-39.85781	886.34199	432.13493	-406.16620	847.09614	317.23238	-395.35375	1196.78977	794.22398	-128.32375	1245.13520	693.54591	-117.43635	1232.01806	670.28837	-53.30174	1134.31439	774.67868	-36.85997	1179.81594	669.99304	-27.04103	1101.31672	789.24541	-407.72032	1068.74141	652.29736	-408.63947	991.10776	813.46754	-412.75260	956.38097	682.73412	-391.86165	1151.26340	945.07137	-111.36417	963.72306	982.02102	-183.21219	1160.94658	925.85691	-346.83138	966.21659	985.20022	-281.53491	1029.42280	1444.93847	-273.69161	1096.51145	1419.07171	-108.22661	1097.41137	1378.02915	-429.81598	1139.43021	1347.69562	-249.09597	1141.98364	1341.12129	-286.61448	1074.63278	1187.78125	-6.55344	1007.01068	1102.40033	-26.82269	1041.98319	1103.91431	24.07143	1101.89727	972.49102	37.83577	1137.32303	873.99037	23.22878	1107.67265	870.31032	55.90998	1134.02162	1153.25839	-509.84642	1107.04545	1040.61636	-473.82026	1130.81409	1051.43518	-525.91530	1236.50328	952.83587	-540.49950	1309.97939	874.58062	-517.17485	1279.29873	852.10298	-540.84334	1075.86257	864.37430	-140.82684	1065.98871	864.37105	-331.24107	1082.96903	862.58853	-147.90984	1086.92369	867.63140	-303.83303	
115	1.14000000	1233.79392	497.62232	-69.32193	1284.41400	472.82677	-75.84636	1361.33639	110.11468	-104.24999	1324.28087	59.76730	-156.39789	1513.50978	106.61104	-58.12856	1530.01501	150.60180	-111.05816	975.50361	486.34042	-387.45249	974.07260	395.76803	-394.99155	824.20628	106.94392	-333.25771	756.02197	78.40536	-280.13628	934.40683	38.34550	-354.77156	978.13401	53.82463	-302.02476	1325.30171	366.13107	-87.12950	1220.36762	443.23421	-40.86749	1260.43487	334.31983	-40.02269	892.04508	432.45565	-406.54773	851.07087	318.09991	-395.83171	1207.57177	792.08716	-129.25211	1255.72055	691.33314	-118.37149	1243.29655	668.42371	-53.98023	1146.14592	773.45683	-36.83059	1191.30985	668.47906	-27.12334	1109.80973	787.49531	-408.34802	1076.18582	650.86883	-409.18561	999.80687	812.60394	-412.54528	964.19749	682.03636	-391.77979	1163.08052	943.20507	-111.89087	974.86799	980.36675	-182.71249	1170.86276	924.15909	-347.70785	976.75641	983.62868	-280.98894	1039.88602	1443.61614	-269.84135	1106.11061	1416.00857	-104.35605	1108.52292	1378.51887	-426.39923	1149.81439	1346.18840	-245.80386	1152.50997	1340.02790	-283.40241	1083.75446	1183.84991	-4.73681	1016.86110	1098.34254	-26.58632	1050.97090	1099.70404	24.83767	1111.12367	968.33897	38.60031	1147.07085	870.05280	23.82885	1116.97793	866.06051	56.08752	1145.69790	1154.49913	-508.32315	1118.54745	1041.59104	-473.56435	1142.74692	1052.70909	-525.29676	1249.42623	955.03408	-539.63011	1323.69920	877.27045	-516.38183	1293.61265	854.59662	-540.41041	1087.26057	862.60672	-141.08619	1076.06197	862.73270	-331.42403	1094.27200	860.69313	-148.13924	1097.27118	865.87592	-304.25720	
116	1.15000000	1244.60149	496.01881	-69.32380	1295.28825	471.77782	-75.68206	1377.40826	109.85878	-105.00733	1340.96598	59.27735	-157.05828	1529.44284	108.74499	-58.64327	1545.13017	153.02535	-111.15651	982.29997	485.41657	-387.60278	979.58118	394.77381	-395.20813	825.18092	108.16767	-333.79388	756.65507	80.35037	-280.66231	934.59228	38.15442	-354.88783	978.57461	53.42557	-302.25457	1337.55266	365.61066	-87.07313	1231.51079	441.29387	-40.96245	1272.92564	332.87333	-40.30991	898.17241	432.74397	-406.77371	855.33946	318.99565	-396.18402	1218.76232	790.30649	-130.28237	1266.90680	689.55189	-119.50115	1255.21893	666.89597	-54.87822	1158.36341	772.30259	-36.91461	1203.38796	667.10813	-27.48038	1118.48713	785.66905	-408.87259	1083.88766	649.37870	-409.62434	1008.66398	811.59592	-412.18707	972.30160	681.16004	-391.51682	1175.17584	941.34859	-112.42071	986.18417	978.72435	-182.10925	1180.86068	922.40646	-348.62846	987.43459	981.99233	-280.33629	1050.45752	1442.23140	-265.81881	1115.84445	1412.81567	-100.35527	1119.71693	1379.00706	-422.82576	1160.32318	1344.60412	-242.38596	1163.15742	1338.87103	-280.06256	1093.03913	1179.80034	-2.84554	1026.87529	1094.19308	-26.27069	1060.09371	1095.38120	25.66183	1120.50878	964.04545	39.35990	1156.95306	865.99285	24.38605	1126.43210	861.67350	56.23250	1157.26912	1155.69748	-506.62259	1129.76881	1042.64699	-473.15057	1154.47627	1053.96405	-524.48521	1261.99725	957.08073	-538.56192	1336.95043	879.74605	-515.43722	1307.33123	856.93328	-539.76855	1098.89763	860.84577	-141.28882	1086.23207	861.03646	-331.53145	1105.76097	858.83795	-148.29492	1107.74953	864.04013	-304.64422	
